<mxfile host="app.diagrams.net" modified="2023-03-04T03:38:26.625Z" agent="5.0 (Macintosh; Intel Mac OS X 10_15_7) AppleWebKit/537.36 (KHTML, like Gecko) Chrome/110.0.0.0 Safari/537.36" etag="h1qoNXZ-wWTYkuydD5A7" version="20.8.23" type="github">
  <diagram name="第 1 页" id="nkp_MTn814R25akcquSp">
    <mxGraphModel dx="1385" dy="771" grid="1" gridSize="10" guides="1" tooltips="1" connect="1" arrows="1" fold="1" page="1" pageScale="1" pageWidth="827" pageHeight="1169" math="0" shadow="0">
      <root>
        <mxCell id="0" />
        <mxCell id="1" parent="0" />
        <mxCell id="lXcfenjcooxFhSZYw2Mp-1" value="Spark" style="rounded=0;whiteSpace=wrap;html=1;" vertex="1" parent="1">
          <mxGeometry x="240" y="210" width="120" height="60" as="geometry" />
        </mxCell>
        <mxCell id="lXcfenjcooxFhSZYw2Mp-6" value="" style="edgeStyle=orthogonalEdgeStyle;rounded=0;orthogonalLoop=1;jettySize=auto;html=1;" edge="1" parent="1" source="lXcfenjcooxFhSZYw2Mp-2" target="lXcfenjcooxFhSZYw2Mp-1">
          <mxGeometry relative="1" as="geometry" />
        </mxCell>
        <mxCell id="lXcfenjcooxFhSZYw2Mp-8" value="&lt;font style=&quot;font-size: 11px;&quot;&gt;0-100亿&lt;/font&gt;" style="edgeLabel;html=1;align=center;verticalAlign=middle;resizable=0;points=[];fontSize=18;" vertex="1" connectable="0" parent="lXcfenjcooxFhSZYw2Mp-6">
          <mxGeometry x="-0.0909" y="1" relative="1" as="geometry">
            <mxPoint as="offset" />
          </mxGeometry>
        </mxCell>
        <mxCell id="lXcfenjcooxFhSZYw2Mp-2" value="用户信息" style="shape=cylinder3;whiteSpace=wrap;html=1;boundedLbl=1;backgroundOutline=1;size=15;" vertex="1" parent="1">
          <mxGeometry x="50" y="200" width="90" height="80" as="geometry" />
        </mxCell>
        <mxCell id="lXcfenjcooxFhSZYw2Mp-3" value="partition-0&lt;br&gt;(0-1000万)" style="rounded=0;whiteSpace=wrap;html=1;" vertex="1" parent="1">
          <mxGeometry x="500" y="90" width="120" height="60" as="geometry" />
        </mxCell>
        <mxCell id="lXcfenjcooxFhSZYw2Mp-4" value="partition-1&lt;br&gt;(1000万-2000万)" style="rounded=0;whiteSpace=wrap;html=1;" vertex="1" parent="1">
          <mxGeometry x="500" y="181" width="120" height="60" as="geometry" />
        </mxCell>
        <mxCell id="lXcfenjcooxFhSZYw2Mp-5" value="partition-n" style="rounded=0;whiteSpace=wrap;html=1;" vertex="1" parent="1">
          <mxGeometry x="500" y="350" width="120" height="60" as="geometry" />
        </mxCell>
        <mxCell id="lXcfenjcooxFhSZYw2Mp-7" value="&lt;b&gt;&lt;font style=&quot;font-size: 18px;&quot;&gt;....&lt;/font&gt;&lt;/b&gt;" style="text;html=1;strokeColor=none;fillColor=none;align=center;verticalAlign=middle;whiteSpace=wrap;rounded=0;" vertex="1" parent="1">
          <mxGeometry x="530" y="270" width="60" height="30" as="geometry" />
        </mxCell>
        <mxCell id="lXcfenjcooxFhSZYw2Mp-9" value="" style="endArrow=classic;html=1;rounded=0;fontSize=11;entryX=0;entryY=0.5;entryDx=0;entryDy=0;exitX=1;exitY=0.5;exitDx=0;exitDy=0;" edge="1" parent="1" source="lXcfenjcooxFhSZYw2Mp-1" target="lXcfenjcooxFhSZYw2Mp-3">
          <mxGeometry width="50" height="50" relative="1" as="geometry">
            <mxPoint x="350" y="420" as="sourcePoint" />
            <mxPoint x="400" y="370" as="targetPoint" />
          </mxGeometry>
        </mxCell>
        <mxCell id="lXcfenjcooxFhSZYw2Mp-10" value="@hash(uid)=0" style="edgeLabel;html=1;align=center;verticalAlign=middle;resizable=0;points=[];fontSize=11;" vertex="1" connectable="0" parent="lXcfenjcooxFhSZYw2Mp-9">
          <mxGeometry x="-0.116" y="1" relative="1" as="geometry">
            <mxPoint as="offset" />
          </mxGeometry>
        </mxCell>
        <mxCell id="lXcfenjcooxFhSZYw2Mp-11" value="" style="endArrow=classic;html=1;rounded=0;fontSize=11;entryX=0;entryY=0.5;entryDx=0;entryDy=0;exitX=1;exitY=0.5;exitDx=0;exitDy=0;" edge="1" parent="1" source="lXcfenjcooxFhSZYw2Mp-1" target="lXcfenjcooxFhSZYw2Mp-4">
          <mxGeometry width="50" height="50" relative="1" as="geometry">
            <mxPoint x="370" y="250" as="sourcePoint" />
            <mxPoint x="530" y="130" as="targetPoint" />
          </mxGeometry>
        </mxCell>
        <mxCell id="lXcfenjcooxFhSZYw2Mp-13" value="@hash(uid)=1" style="edgeLabel;html=1;align=center;verticalAlign=middle;resizable=0;points=[];fontSize=11;" vertex="1" connectable="0" parent="lXcfenjcooxFhSZYw2Mp-11">
          <mxGeometry x="0.1118" relative="1" as="geometry">
            <mxPoint as="offset" />
          </mxGeometry>
        </mxCell>
        <mxCell id="lXcfenjcooxFhSZYw2Mp-14" value="" style="endArrow=classic;html=1;rounded=0;fontSize=11;entryX=0;entryY=0.5;entryDx=0;entryDy=0;exitX=1;exitY=0.5;exitDx=0;exitDy=0;" edge="1" parent="1" source="lXcfenjcooxFhSZYw2Mp-1" target="lXcfenjcooxFhSZYw2Mp-5">
          <mxGeometry width="50" height="50" relative="1" as="geometry">
            <mxPoint x="370" y="250" as="sourcePoint" />
            <mxPoint x="530" y="210" as="targetPoint" />
          </mxGeometry>
        </mxCell>
        <mxCell id="lXcfenjcooxFhSZYw2Mp-15" value="@hash(uid)=n" style="edgeLabel;html=1;align=center;verticalAlign=middle;resizable=0;points=[];fontSize=11;" vertex="1" connectable="0" parent="lXcfenjcooxFhSZYw2Mp-14">
          <mxGeometry x="0.1118" relative="1" as="geometry">
            <mxPoint as="offset" />
          </mxGeometry>
        </mxCell>
      </root>
    </mxGraphModel>
  </diagram>
</mxfile>
